<svg id="Camada_1" data-name="Camada 1" xmlns="http://www.w3.org/2000/svg" viewBox="0 0 505.18 95.99"><defs><linearGradient id="Gradiente_sem_nome_72" data-name="Gradiente sem nome 72" x1="72.82" y1="86.34" x2="72.82" y2="17.75" gradientUnits="userSpaceOnUse"><stop offset="0" stop-color="#e9f0ff"/><stop offset="1" stop-color="#98baff"/></linearGradient><style>.cls-2{stroke-width:0;fill:#e9f0ff}</style></defs><path d="M104.24 34.69c-.79 0-1.58.03-2.34.09-.2.01-.39.03-.59.05l-.33.03-.05.33c-.11.81-.27 1.64-.46 2.47a28.366 28.366 0 0 1-12.16 17.27c3.18-4.62 4.93-9.99 5.08-15.66 0-.27.01-.53.01-.8 0-.32 0-.63-.02-.93v-.2l-.06-.52-.17.06c-.71-1.68-1.57-3.31-2.57-4.84-1.67-2.57-3.7-4.88-6.03-6.86-.5-.43-1.03-.85-1.63-1.29a31.102 31.102 0 0 0-18.64-6.15c-7.13 0-14.1 2.46-19.64 6.92a31.631 31.631 0 0 0-5.7 5.97 31.842 31.842 0 0 0-3.75 6.75l-.03.07v.07a26.735 26.735 0 0 0 .02 2.48c.1 2.01.42 4.02.93 5.96 1.47 5.55 4.6 10.57 8.91 14.37a28.324 28.324 0 0 1-11.17-8.25 28.697 28.697 0 0 1-3.65-5.71l-.15-.32-.34.09c-.82.21-1.62.47-2.39.75-9.11 3.42-15.24 12.26-15.24 21.99 0 2.36.35 4.69 1.04 6.92v.07l.07.11a23.473 23.473 0 0 0 19.4 10.34h49.14l-.64-.71a28.317 28.317 0 0 1-5.05-7.95c-.52-1.22-.95-2.5-1.3-3.8-.62-2.36-.93-4.8-.93-7.26 0-.3 0-.6.01-.9.06-1.95.32-3.88.77-5.74.31-1.32.73-2.62 1.23-3.89 0 .25-.01.5-.01.75v.19c0 .9.04 1.82.13 2.71.14 1.51.4 3.03.77 4.52a29.23 29.23 0 0 0 3.2 7.73c.54.91 1.14 1.81 1.79 2.66 5.6 7.43 14.13 11.69 23.42 11.69 11.18 0 21.23-6.21 26.23-16.21l.04-.09c.91-1.84 1.63-3.78 2.13-5.77v-.08c.02-.06.02-.13.02-.19 0-16.16-13.15-29.31-29.31-29.31z" style="fill:url(#Gradiente_sem_nome_72);stroke-width:0"/><path d="M105.82 19.35c-2.24 0-4.44.19-6.58.56-.51.09-1.02.19-1.53.3A37.982 37.982 0 0 0 81.52 4.19 37.723 37.723 0 0 0 64.18 0c-18.62 0-34.1 13.43-37.29 31.12C11.6 33.86 0 47.22 0 63.29c0 18.05 14.63 32.67 32.67 32.67h.02v.03h73.13v-.03c21.16 0 38.31-17.15 38.31-38.31s-17.15-38.31-38.31-38.31zm25.24 50.99c-4.74 9.47-14.53 15.98-25.85 15.98-9.43 0-17.81-4.52-23.08-11.52-.64-.84-1.23-1.72-1.76-2.62-1.4-2.34-2.47-4.9-3.16-7.62-.37-1.44-.62-2.93-.76-4.45-.08-.88-.12-1.77-.12-2.68v-.16c0-.94.05-1.88.15-2.79.01-.12.02-.24.04-.35-.11.2-.2.41-.3.62-.83 1.76-1.49 3.61-1.95 5.55a28.63 28.63 0 0 0-.78 5.82c0 .3-.01.61-.01.92 0 2.55.33 5.02.95 7.37.35 1.33.79 2.61 1.32 3.86 1.25 2.98 2.99 5.7 5.12 8.07H32.69c-7.93-.02-14.92-4.04-19.05-10.16a22.938 22.938 0 0 1-3.94-12.9c0-10.53 7.06-19.42 16.71-22.17.45-.13.9-.24 1.36-.34.48 2.18 1.2 4.26 2.14 6.22 1 2.09 2.25 4.03 3.7 5.8 3.53 4.29 8.27 7.54 13.71 9.22-5.17-3.82-9.02-9.33-10.71-15.72-.5-1.89-.82-3.86-.92-5.88-.03-.5-.04-1-.04-1.51 0-.31 0-.62.02-.93.08-2.45.46-4.83 1.12-7.09 2.14-7.39 7.18-13.54 13.79-17.17 4.09-2.24 8.78-3.52 13.77-3.52 2.95 0 5.8.45 8.48 1.27 6.55 2.02 12.1 6.33 15.71 11.99a28.41 28.41 0 0 1 4.48 14.36v.15c.01.31.02.62.02.93 0 .26 0 .52-.01.79a28.476 28.476 0 0 1-6.27 17.12c3.27-1.79 6.15-4.19 8.49-7.06a28.564 28.564 0 0 0 6.16-14.07c.15-1.02.24-2.06.27-3.11.01-.31.02-.63.02-.94 0-.96-.05-1.9-.14-2.83 1.19-.15 2.4-.23 3.63-.23 15.95 0 28.89 12.93 28.89 28.88 0 2.46-.31 4.85-.89 7.13a27.92 27.92 0 0 1-2.15 5.77z" style="stroke-width:0;fill:#174bb5"/><path class="cls-2" d="M134.1 57.44c0-15.95-12.93-28.88-28.89-28.88-1.23 0-2.44.08-3.63.23.09.93.14 1.88.14 2.83 0 .31 0 .63-.02.94-.03 1.06-.12 2.09-.27 3.12.19-.02.39-.04.58-.05.76-.06 1.53-.09 2.31-.09 15.95 0 28.88 12.93 28.88 28.89v.16c.58-2.28.89-4.67.89-7.13zM27.77 40.76c-.46.1-.91.21-1.36.34C16.76 43.86 9.7 52.74 9.7 63.27c0 4.78 1.45 9.21 3.94 12.89-.67-2.17-1.04-4.47-1.04-6.86 0-9.88 6.22-18.32 14.96-21.59.76-.29 1.55-.53 2.35-.74-.94-1.96-1.67-4.04-2.14-6.22zM88.56 23.45c-3.62-5.66-9.17-9.97-15.71-11.99-2.68-.83-5.53-1.27-8.48-1.27-4.99 0-9.68 1.27-13.77 3.52-6.62 3.63-11.65 9.78-13.79 17.17-.66 2.26-1.04 4.63-1.12 7.09.96-2.38 2.2-4.62 3.69-6.66 1.61-2.2 3.5-4.19 5.62-5.89a30.77 30.77 0 0 1 19.37-6.82 30.768 30.768 0 0 1 19.99 7.33A30.932 30.932 0 0 1 93 37.83c.01 0 .03-.01.05-.02a28.41 28.41 0 0 0-4.48-14.36z"/><g><path class="cls-2" d="M214.6 53.87v26.58c0 2.11-1.19 3.3-3.3 3.3h-6.23c-2.02 0-3.3-1.19-3.3-3.3V54.97c0-6.78-3.21-8.52-8.98-8.52-3.39 0-7.88.82-10.81 2.29v31.71c0 2.11-1.19 3.3-3.3 3.3h-6.23c-2.11 0-3.3-1.19-3.3-3.3v-34c0-1.47.09-4.03 2.84-6.05 4.21-2.93 13.1-5.5 21.63-5.5 12.46 0 20.99 4.03 20.99 18.97zM221.53 61.75V38.93c0-2.11 1.19-3.3 3.3-3.3h6.14c2.11 0 3.3 1.19 3.3 3.3V62.3c0 7.61 3.94 11.27 9.99 11.27s9.99-3.67 9.99-11.27V38.93c0-2.11 1.19-3.3 3.3-3.3h6.23c2.02 0 3.21 1.19 3.21 3.3v22.82c0 14.57-9.35 22.73-22.73 22.73s-22.73-8.16-22.73-22.73zM274.41 61.75V38.93c0-2.11 1.19-3.3 3.3-3.3h6.14c2.11 0 3.3 1.19 3.3 3.3V62.3c0 7.61 3.94 11.27 9.99 11.27s9.99-3.67 9.99-11.27V38.93c0-2.11 1.19-3.3 3.3-3.3h6.23c2.02 0 3.21 1.19 3.21 3.3v22.82c0 14.57-9.35 22.73-22.73 22.73s-22.73-8.16-22.73-22.73zM376.07 38.02c0 .37-.09.92-.28 1.47l-14.57 38.49c-1.65 4.49-5.77 6.51-10.17 6.51s-8.52-2.02-10.17-6.51L326.4 39.49a3.36 3.36 0 0 1-.37-1.47c0-1.47 1.1-2.38 3.02-2.38h6.23c1.92 0 3.21.92 3.85 2.66l11.91 33.73 12.01-33.73c.55-1.74 1.92-2.66 3.85-2.66h6.23c1.92 0 2.93.92 2.93 2.38zM419.39 65.14h-29.6c1.37 5.96 6.14 9.35 12.65 9.35 3.48 0 7.7-1.01 11.46-2.2.73-.27 1.37-.46 1.92-.46 1.19 0 2.11.73 2.75 2.11l1.28 2.93c.27.55.46 1.28.46 1.83 0 1.1-.37 1.74-1.74 2.29-3.85 1.65-10.36 3.48-17.41 3.48-14.48 0-24.19-10.17-24.19-24.84s9.9-24.74 24.1-24.74c15.03 0 22.36 11.27 22.36 26.21 0 2.57-1.47 4.03-4.03 4.03zm-29.69-8.8h21.9c-.73-6.96-3.94-11.55-10.54-11.55s-10.26 4.4-11.36 11.55zM505.18 53.87v26.58c0 2.11-1.19 3.3-3.3 3.3h-6.14c-2.11 0-3.3-1.19-3.3-3.3V54.88c0-6.78-3.21-8.43-8.34-8.43-2.84 0-7.33.82-10.54 2.47.27 1.47.37 3.12.37 4.95v26.58c0 2.11-1.19 3.3-3.3 3.3h-6.23c-2.02 0-3.3-1.19-3.3-3.3V54.88c0-6.78-3.12-8.43-8.25-8.43-2.84 0-7.24.82-10.17 2.29v31.71c0 2.11-1.19 3.3-3.3 3.3h-6.23c-2.11 0-3.3-1.19-3.3-3.3v-34c0-1.47.09-4.03 2.84-6.05 4.21-2.93 13.1-5.5 20.99-5.5 5.96 0 11.18 1.1 14.75 4.12 4.86-2.29 11.18-4.12 16.59-4.12 11.55 0 20.16 4.03 20.16 18.97z"/></g></svg>